<svg height="480pt" viewBox="0 0 480 480" width="480pt" xmlns="http://www.w3.org/2000/svg" xmlns:xlink="http://www.w3.org/1999/xlink"><linearGradient id="a" gradientUnits="userSpaceOnUse" x1="70.376" x2="409.624" y1="409.624" y2="70.376"><stop offset="0" stop-color="#41dfd0"/><stop offset="1" stop-color="#ee83ef"/></linearGradient><path d="m387.28125 176.863281c-.113281.046875-.175781.136719-.289062.183594l-308.464844 179.386719c-2 1.160156-3.398438 3.136718-3.835938 5.410156-.433594 2.273438.136719 4.625 1.566406 6.445312 64.070313 81.6875 178.554688 103.640626 268.300782 51.445313 89.742187-52.195313 127.269531-162.5625 87.945312-258.644531-.878906-2.140625-2.636718-3.792969-4.824218-4.539063-2.191407-.742187-4.59375-.503906-6.589844.65625l-33.785156 19.648438zm-123.28125 95.136719v71.753906l-56.800781-43.65625 56.800781-33.019531zm16-14.222656 13.878906-8.074219c-2.660156 6.027344-7.679687 10.699219-13.878906 12.929687zm152-17.777344c.003906 80.210938-49.855469 151.972656-125.03125 179.949219-75.175781 27.976562-159.816406 6.277343-212.257812-54.421875l97.601562-56.742188 74.832031 57.550782c2.417969 1.839843 5.675781 2.152343 8.398438.800781 2.71875-1.34375 4.441406-4.105469 4.457031-7.136719v-80.800781c18.613281-3.828125 31.976562-20.199219 32-39.199219 0-.265625-.128906-.488281-.152344-.742188l37.273438-21.65625c8.378906 31.972657-1.835938 65.945313-26.457032 88-2.160156 1.898438-3.136718 4.808594-2.554687 7.625.582031 2.816407 2.628906 5.105469 5.367187 5.992188 2.734376.886719 5.734376.238281 7.859376-1.699219 30.351562-27.058593 42.070312-69.367187 29.96875-108.183593l22.230468-12.929688c16.3125 54.042969 1.230469 112.671875-39.136718 152.136719-3.160157 3.09375-3.21875 8.164062-.125 11.328125 3.089843 3.164062 8.164062 3.222656 11.328124.128906 45.621094-44.566406 61.9375-111.195312 42.078126-171.800781l21.320312-12.398438c7.316406 20.613281 11.035156 42.328125 11 64.199219zm-192-208c-73.355469.023438-141.273438 38.671875-178.769531 101.71875-37.492188 63.046875-39.011719 141.179688-4.007813 205.640625 1.03125 1.894531 2.785156 3.292969 4.859375 3.875 2.074219.585937 4.296875.308594 6.164063-.769531l346.464844-199.792969c1.867187-1.078125 3.21875-2.867187 3.75-4.957031s.195312-4.308594-.933594-6.148438c-37.605469-62.039062-104.980469-99.824218-177.527344-99.566406zm-160 216v-16c.042969-10.132812 6.445312-19.148438 16-22.527344v61.054688c-9.554688-3.378906-15.957031-12.394532-16-22.527344zm32-40h16v64h-16zm32 0h16v63.078125l-1.601562.921875h-14.398438zm32-4.0625 16-12.304688v24.367188c0 4.417969 3.582031 8 8 8s8-3.582031 8-8v-36.679688l56-43.074218v74.867187l-57.167969 32.964844c-1.375-2.488281-3.984375-4.046875-6.832031-4.078125-4.417969 0-8 3.582031-8 8v4.632812l-16 9.222657zm202.398438-58.785156c-5.464844-8.101563-11.621094-15.714844-18.398438-22.753906-3.105469-3.078126-8.109375-3.089844-11.234375-.03125-3.121094 3.0625-3.207031 8.066406-.191406 11.234374 5.839843 6.074219 11.171875 12.613282 15.945312 19.558594l-26.589843 15.335938c-2.097657-.761719-4.421876-.558594-6.355469.554687-1.929688 1.113281-3.273438 3.027344-3.664063 5.222657l-47.910156 27.613281v-81.886719c-.003906-3.042969-1.734375-5.824219-4.46875-7.167969-2.730469-1.34375-5.988281-1.023437-8.402344.832031l-101.847656 78.335938h-61.28125c-22.082031.027344-39.972656 17.917969-40 40v16c.027344 22.082031 17.917969 39.972656 40 40h26.664062l-63.160156 36.414062c-44.738281-90.761718-11.359375-200.667968 76.304688-251.214843 87.660156-50.550781 199.503906-24.386719 255.648437 59.800781zm-138.398438-145.152344c-132.546875 0-240 107.453125-240 240s107.453125 240 240 240 240-107.453125 240-240c-.148438-132.484375-107.515625-239.851562-240-240zm0 464c-123.710938 0-224-100.289062-224-224s100.289062-224 224-224 224 100.289062 224 224c-.140625 123.652344-100.347656 223.859375-224 224zm0 0" fill="url(#a)"/></svg>