<svg height="511pt" viewBox="1 0 511.99993 511" width="511pt" xmlns="http://www.w3.org/2000/svg" xmlns:xlink="http://www.w3.org/1999/xlink"><linearGradient id="a" gradientTransform="matrix(.397798 0 0 -.397798 -.000015 503.904692)" gradientUnits="userSpaceOnUse" x1="91.4317" x2="1195.6534" y1="59.1779" y2="1163.3781"><stop offset="0" stop-color="#41dfd0"/><stop offset="1" stop-color="#ee83ef"/></linearGradient><path d="m482.132812 59.992188c-16.496093 0-29.867187 13.371093-29.867187 29.867187v84.480469l-37.65625 60.261718-98.875-35.6875v-74.5625c.023437-26.960937-7.957031-53.324218-22.929687-75.742187l-29.707032-44.554687c-2.929687-3.917969-8.488281-4.722657-12.410156-1.789063-.675781.507813-1.28125 1.113281-1.789062 1.789063l-29.703126 44.554687c-14.972656 22.417969-22.953124 48.78125-22.929687 75.742187v74.5625l-98.984375 35.738282-37.546875-57.753906v-87.039063c0-16.496094-13.371094-29.867187-29.867187-29.867187-16.496094 0-29.867188 13.371093-29.867188 29.867187v251.734375c0 4.710938 3.820312 8.53125 8.53125 8.53125h8.535156v10.101562c-10.191406 3.605469-17.019531 13.222657-17.066406 24.03125v17.066407c0 4.714843 3.820312 8.535156 8.53125 8.535156h34.136719c4.710937 0 8.53125-3.820313 8.53125-8.535156v-17.066407c-.042969-10.808593-6.875-20.425781-17.066407-24.027343v-10.105469h8.535157c4.710937 0 8.53125-3.820312 8.53125-8.53125v-3.261719l44.542969 22.28125c6.222656 3.109375 11.589843 7.695313 15.632812 13.355469l35.285156 49.382812c.214844.265626.445313.519532.691406.757813.136719.152344.257813.308594.410157.453125.683593.644531 1.46875 1.171875 2.320312 1.5625l.539063.203125c.949218.375 1.957031.578125 2.980468.597656h53.390626c-6.988282 10.011719-10.730469 21.925781-10.726563 34.132813v8.535156c0 4.710938 3.820313 8.53125 8.535156 8.53125h102.398438c4.714843 0 8.535156-3.820312 8.535156-8.53125v-8.535156c.003906-12.207032-3.738281-24.121094-10.71875-34.132813h53.382813c1.019531-.019531 2.03125-.222656 2.980468-.597656.1875-.066406.367188-.128906.535156-.203125.855469-.390625 1.640626-.917969 2.324219-1.5625.152344-.144531.269531-.300781.40625-.453125.25-.238281.484375-.492187.703125-.757813l35.273438-49.382812c4.046875-5.660156 9.414062-10.242188 15.632812-13.355469l44.546875-22.28125v3.261719c0 4.710938 3.820313 8.53125 8.53125 8.53125h8.535157v10.105469c-10.191407 3.601562-17.023438 13.21875-17.066407 24.027343v17.066407c0 4.714843 3.820313 8.535156 8.53125 8.535156h34.132813c4.714844 0 8.535156-3.820313 8.535156-8.535156v-17.066407c-.046875-10.808593-6.875-20.425781-17.066406-24.027343v-10.105469h8.53125c4.714844 0 8.535156-3.820312 8.535156-8.53125v-251.734375c0-16.496094-13.371094-29.867187-29.867188-29.867187zm-448 332.800781h-17.066406v-8.535157c0-4.710937 3.820313-8.53125 8.535156-8.53125 4.710938 0 8.53125 3.820313 8.53125 8.53125zm460.800782 0h-17.066406v-8.535157c0-4.710937 3.820312-8.53125 8.53125-8.53125 4.714843 0 8.535156 3.820313 8.535156 8.53125zm-12.800782-315.734375c7.070313 0 12.800782 5.730468 12.800782 12.800781v10.136719h-25.601563v-10.136719c0-7.070313 5.730469-12.800781 12.800781-12.800781zm-14.097656 104.261718c.847656-1.359374 1.296875-2.925781 1.296875-4.523437v-57.070313h25.601563v99.402344l-32.265625 40.328125c-1.210938 1.515625-1.867188 3.394531-1.867188 5.335938v34.132812h-34.132812v-51.414062zm-58.433594 117.605469h-42.667968v-64.375l42.667968 16.410157zm-59.734374-70.648437v147.449218h-34.132813v-158.824218zm-136.535157-88.488282 24.976563-31.226562 10.589844 15.898438c2.933593 3.921874 8.492187 4.722656 12.410156 1.789062.679687-.507812 1.28125-1.109375 1.789062-1.789062l10.589844-15.898438 24.980469 31.226562v157.984376l-25.984375-21.65625 16.554687-33.109376c.589844-1.1875.894531-2.492187.894531-3.816406v-25.601562c.003907-1.15625-.230468-2.300782-.691406-3.359375l-25.601562-59.734375c-1.855469-4.332032-6.875-6.335938-11.203125-4.476563-2.011719.863281-3.617188 2.464844-4.480469 4.476563l-25.597656 59.734375c-.460938 1.058593-.695313 2.203125-.691406 3.359375v25.601562c-.003907 1.324219.308593 2.632813.902343 3.816406l16.546875 33.109376-25.984375 21.65625zm45.925781 125.003907h-6.519531l-13.804687-27.613281v-21.839844l17.066406-39.816406 17.066406 39.816406v21.839844zm-3.257812 19.625 42.667969 35.558593v3.492188l-14.269531 9.503906c-17.183594 11.503906-39.613282 11.503906-56.796876 0l-14.269531-9.488281v-3.492187zm-42.667969 125.441406v-65.871094l4.804688 3.203125c22.914062 15.335938 52.820312 15.335938 75.734375 0l4.796875-3.203125v65.871094zm42.667969-385.707031 22.605469 33.894531c2.378906 3.625 4.566406 7.371094 6.542969 11.230469.386718.734375.777343 1.46875 1.144531 2.21875 1.851562 3.730468 3.503906 7.554687 4.949219 11.457031.265624.710937.488281 1.425781.734374 2.136719 1.335938 3.808594 2.472657 7.6875 3.414063 11.613281.078125.332031.1875.65625.265625.980469.917969 4.140625 1.617188 8.324218 2.097656 12.535156.050782.417969.09375.851562.136719 1.261719l-18.167969-22.714844c-1.675781-2.148437-4.300781-3.332031-7.023437-3.175781-2.71875.117187-5.21875 1.527344-6.730469 3.789062l-9.96875 14.984375-9.964844-14.949219c-1.503906-2.273437-4-3.695312-6.726562-3.824218-2.722656-.132813-5.347656 1.054687-7.039063 3.191406l-18.167969 22.726562c0-.417968.085938-.855468.136719-1.261718.480469-4.214844 1.183594-8.398438 2.109375-12.539063.066406-.324219.179688-.648437.253906-.980469.941407-3.925781 2.082032-7.800781 3.414063-11.613281.25-.707031.480469-1.425781.734375-2.132812 1.445312-3.90625 3.097656-7.730469 4.949219-11.460938.367187-.75.761719-1.484375 1.144531-2.21875 1.980469-3.855469 4.164062-7.605469 6.542969-11.230469zm-59.734375 351.574218h-34.132813v-147.449218l34.132813-11.375zm-51.199219-76.800781h-42.667968v-47.964843l42.667968-16.410157zm-59.734375-51.292969v51.292969h-34.132812v-34.132812c0-1.941407-.65625-3.820313-1.867188-5.335938l-32.265625-40.328125v-99.402344h25.601563v59.730469c0 1.652344.480469 3.269531 1.382812 4.652344zm-68.265625-157.773437c0-7.070313 5.730469-12.800781 12.800782-12.800781 7.070312 0 12.800781 5.730468 12.800781 12.800781v12.800781h-25.601563zm17.066406 243.199219h-17.066406v-86.605469l17.066406 21.335937zm69.238282 12.28125-52.171875-26.089844v-3.257812h93.867187v75.777343l-19.796875-27.71875c-5.667969-7.925781-13.183593-14.351562-21.898437-18.710937zm58.761718 47.453125h34.132813v17.066406h-34.132813zm136.535157 68.265625h-85.335938c.011719-13.457032 6.394531-26.117188 17.203125-34.132813h50.9375c10.804688 8.019531 17.179688 20.675781 17.195313 34.132813zm17.066406-51.199219v-17.066406h34.132813v17.066406zm92.894531-64.519531c-8.714844 4.363281-16.230468 10.785156-21.898437 18.710937l-19.796875 27.71875v-75.777343h93.867187v3.257812zm86.304688-12.28125h-17.066406v-65.273438l17.066406-21.332031zm-494.933594 93.867187h17.066406v17.066407h-17.066406zm34.132812 0h17.066407v17.066407h-17.066407zm162.132813 68.265625h17.066406v17.066406h-17.066406zm34.132813 0h17.066406v17.066406h-17.066406zm34.132812 0h17.070312v17.066406h-17.070312zm34.136719 0h17.066406v17.066406h-17.066406zm162.132812-68.265625h17.066407v17.066407h-17.066407zm34.132813 0h17.066406v17.066407h-17.066406zm-349.867188-247.46875v17.070313h-17.066406v-17.070313zm34.132813-8.53125v17.066407h-17.066407v-17.066407zm204.800781 8.53125v17.070313h-17.066406v-17.070313zm-34.132812-8.53125v17.066407h-17.066407v-17.066407zm0 0" fill="url(#a)"/></svg>