<svg height="512" viewBox="0 0 64 64" width="512" xmlns="http://www.w3.org/2000/svg" xmlns:xlink="http://www.w3.org/1999/xlink"><linearGradient id="linear-gradient" gradientUnits="userSpaceOnUse" x1="1.672" x2="63.795" y1="62.328" y2=".205"><stop offset="0" stop-color="#003f8a"/><stop offset=".518" stop-color="#00d7df"/><stop offset="1" stop-color="#006df0"/></linearGradient><linearGradient id="linear-gradient-2" x1="-17.828" x2="44.295" xlink:href="#linear-gradient" y1="42.828" y2="-19.295"/><linearGradient id="linear-gradient-3" x1="-3.828" x2="58.295" xlink:href="#linear-gradient" y1="56.828" y2="-5.295"/><linearGradient id="linear-gradient-4" x1="7.172" x2="69.295" xlink:href="#linear-gradient" y1="67.828" y2="5.705"/><linearGradient id="linear-gradient-5" x1="21.172" x2="83.295" xlink:href="#linear-gradient" y1="81.828" y2="19.705"/><linearGradient id="linear-gradient-6" x1="5.172" x2="67.295" xlink:href="#linear-gradient" y1="65.828" y2="3.705"/><linearGradient id="linear-gradient-8" x1="-7.828" x2="54.295" xlink:href="#linear-gradient" y1="52.828" y2="-9.295"/><linearGradient id="linear-gradient-10" x1="11.922" x2="74.045" xlink:href="#linear-gradient" y1="72.578" y2="10.455"/><linearGradient id="linear-gradient-11" x1="15.422" x2="77.545" xlink:href="#linear-gradient" y1="76.078" y2="13.955"/><path d="m49 1h-34a3 3 0 0 0 -3 3v56a3 3 0 0 0 3 3h34a3 3 0 0 0 3-3v-56a3 3 0 0 0 -3-3zm1 59a1 1 0 0 1 -1 1h-34a1 1 0 0 1 -1-1v-56a1 1 0 0 1 1-1h34a1 1 0 0 1 1 1z" fill="url(#linear-gradient)"/><path d="m18 10a3 3 0 1 0 -3-3 3 3 0 0 0 3 3zm0-4a1 1 0 1 1 -1 1 1 1 0 0 1 1-1z" fill="url(#linear-gradient-2)"/><path d="m46 4a3 3 0 1 0 3 3 3 3 0 0 0 -3-3zm0 4a1 1 0 1 1 1-1 1 1 0 0 1 -1 1z" fill="url(#linear-gradient-3)"/><path d="m18 54a3 3 0 1 0 3 3 3 3 0 0 0 -3-3zm0 4a1 1 0 1 1 1-1 1 1 0 0 1 -1 1z" fill="url(#linear-gradient-4)"/><path d="m46 54a3 3 0 1 0 3 3 3 3 0 0 0 -3-3zm0 4a1 1 0 1 1 1-1 1 1 0 0 1 -1 1z" fill="url(#linear-gradient-5)"/><path d="m32 22a17 17 0 1 0 17 17 17.019 17.019 0 0 0 -17-17zm0 32a15 15 0 1 1 15-15 15.017 15.017 0 0 1 -15 15z" fill="url(#linear-gradient-6)"/><path d="m32 27a12 12 0 1 0 12 12 12.013 12.013 0 0 0 -12-12zm0 22a10 10 0 1 1 10-10 10.011 10.011 0 0 1 -10 10z" fill="url(#linear-gradient-6)"/><path d="m32 21a8 8 0 1 0 -8-8 8.009 8.009 0 0 0 8 8zm0-14a6 6 0 1 1 -6 6 6.006 6.006 0 0 1 6-6z" fill="url(#linear-gradient-8)"/><path d="m32 18a5 5 0 1 0 -5-5 5.006 5.006 0 0 0 5 5zm0-8a3 3 0 1 1 -3 3 3 3 0 0 1 3-3z" fill="url(#linear-gradient-8)"/><path d="m30 57h-7a1 1 0 0 0 0 2h7a1 1 0 0 0 0-2z" fill="url(#linear-gradient-10)"/><path d="m34 57h-1a1 1 0 0 0 0 2h1a1 1 0 0 0 0-2z" fill="url(#linear-gradient-11)"/></svg>